<svg width="511" height="171" viewBox="0 0 511 171" fill="none" xmlns="http://www.w3.org/2000/svg">
<path d="M124.283 105.563L137.53 113.247L124.283 120.931L111.037 113.247L124.283 105.563Z" fill="#FA693A"/>
<path d="M124.27 120.906L124.256 136.248L110.995 128.589L111.009 113.247L124.27 120.906Z" fill="#AD4929"/>
<path d="M124.158 120.906L137.419 113.247L137.433 128.59L124.172 136.248L124.158 120.906Z" fill="#5A28AD"/>
<path d="M84.9955 67.8623L98.242 75.546L84.9955 83.2297L71.749 75.546L84.9955 67.8623Z" fill="#FA693A"/>
<path d="M84.9826 83.2044L84.9681 98.5466L71.7071 90.8881L71.7216 75.5459L84.9826 83.2044Z" fill="#AD4929"/>
<path d="M84.8703 83.2048L98.1313 75.5463L98.1459 90.8885L84.8848 98.5469L84.8703 83.2048Z" fill="#CF5830"/>
<path d="M71.8988 75.4023L85.1453 83.086L71.8988 90.7697L58.6523 83.086L71.8988 75.4023Z" fill="#FA693A"/>
<path d="M71.8859 90.7444L71.8714 106.087L58.6104 98.4281L58.6249 83.086L71.8859 90.7444Z" fill="#AD4929"/>
<path d="M71.7736 90.7448L85.0347 83.0863L85.0492 98.4285L71.7882 106.087L71.7736 90.7448Z" fill="#CF5830"/>
<path d="M98.0912 75.4023L111.338 83.086L98.0912 90.7697L84.8447 83.086L98.0912 75.4023Z" fill="#FA693A"/>
<path d="M98.0783 90.7444L98.0638 106.087L84.8028 98.4281L84.8173 83.086L98.0783 90.7444Z" fill="#AD4929"/>
<path d="M97.966 90.7448L111.227 83.0863L111.242 98.4285L97.9805 106.087L97.966 90.7448Z" fill="#CF5830"/>
<path d="M111.188 82.9414L124.434 90.6251L111.188 98.3088L97.9414 90.6251L111.188 82.9414Z" fill="#FA693A"/>
<path d="M111.175 98.2835L111.16 113.626L97.8995 105.967L97.914 90.625L111.175 98.2835Z" fill="#AD4929"/>
<path d="M111.063 98.2839L124.324 90.6254L124.338 105.968L111.077 113.626L111.063 98.2839Z" fill="#CF5830"/>
<path d="M72.2958 0L85.5423 7.68368L72.2958 15.3674L59.0493 7.68368L72.2958 0Z" fill="#FA693A"/>
<path d="M72.2829 15.3421L72.2684 30.6843L59.0074 23.0258L59.0219 7.68364L72.2829 15.3421Z" fill="#AD4929"/>
<path d="M72.1706 15.3425L85.4316 7.684L85.4462 23.0262L72.1851 30.6846L72.1706 15.3425Z" fill="#CF5830"/>
<path d="M111.188 113.103L124.434 120.786L111.188 128.47L97.9414 120.786L111.188 113.103Z" fill="#FA693A"/>
<path d="M111.175 128.445L111.16 143.787L97.8995 136.128L97.914 120.786L111.175 128.445Z" fill="#AD4929"/>
<path d="M111.063 128.445L124.324 120.787L124.338 136.129L111.077 143.787L111.063 128.445Z" fill="#CF5830"/>
<path d="M98.0912 120.643L111.338 128.326L98.0912 136.01L84.8447 128.326L98.0912 120.643Z" fill="#FA693A"/>
<path d="M98.0783 135.985L98.0638 151.327L84.8028 143.668L84.8173 128.326L98.0783 135.985Z" fill="#AD4929"/>
<path d="M97.966 135.985L111.227 128.327L111.242 143.669L97.9805 151.327L97.966 135.985Z" fill="#CF5830"/>
<path d="M19.9115 105.563L33.158 113.247L19.9115 120.931L6.66504 113.247L19.9115 105.563Z" fill="#FA693A"/>
<path d="M19.8986 120.906L19.8841 136.248L6.62309 128.589L6.63762 113.247L19.8986 120.906Z" fill="#AD4929"/>
<path d="M19.7863 120.906L33.0474 113.247L33.0619 128.59L19.8009 136.248L19.7863 120.906Z" fill="#CF5830"/>
<path d="M32.6103 113.103L45.8568 120.786L32.6103 128.47L19.3638 120.786L32.6103 113.103Z" fill="#FA693A"/>
<path d="M32.5974 128.445L32.5828 143.787L19.3218 136.128L19.3363 120.786L32.5974 128.445Z" fill="#AD4929"/>
<path d="M32.4851 128.445L45.7461 120.787L45.7606 136.129L32.4996 143.787L32.4851 128.445Z" fill="#CF5830"/>
<path d="M45.7074 120.643L58.9539 128.326L45.7074 136.01L32.4609 128.326L45.7074 120.643Z" fill="#FA693A"/>
<path d="M45.6945 135.985L45.68 151.327L32.419 143.668L32.4335 128.326L45.6945 135.985Z" fill="#AD4929"/>
<path d="M45.5822 135.985L58.8433 128.327L58.8578 143.669L45.5968 151.327L45.5822 135.985Z" fill="#CF5830"/>
<path d="M58.8027 128.184L72.0492 135.867L58.8027 143.551L45.5562 135.867L58.8027 128.184Z" fill="#FA693A"/>
<path d="M58.7898 143.526L58.7752 158.868L45.5142 151.209L45.5287 135.867L58.7898 143.526Z" fill="#AD4929"/>
<path d="M58.6774 143.526L71.9385 135.868L71.953 151.21L58.692 158.868L58.6774 143.526Z" fill="#CF5830"/>
<path d="M84.9955 128.184L98.242 135.867L84.9955 143.551L71.749 135.867L84.9955 128.184Z" fill="#FA693A"/>
<path d="M84.9826 143.526L84.9681 158.868L71.7071 151.209L71.7216 135.867L84.9826 143.526Z" fill="#AD4929"/>
<path d="M84.8703 143.526L98.1313 135.868L98.1459 151.21L84.8848 158.868L84.8703 143.526Z" fill="#CF5830"/>
<path d="M19.9115 90.4824L33.158 98.1661L19.9115 105.85L6.66504 98.1661L19.9115 90.4824Z" fill="#FA693A"/>
<path d="M19.8986 105.825L19.8841 121.167L6.62309 113.508L6.63762 98.1661L19.8986 105.825Z" fill="#AD4929"/>
<path d="M19.7863 105.825L33.0474 98.1664L33.0619 113.509L19.8009 121.167L19.7863 105.825Z" fill="#CF5830"/>
<path d="M19.9115 75.4023L33.158 83.086L19.9115 90.7697L6.66504 83.086L19.9115 75.4023Z" fill="#FA693A"/>
<path d="M19.8986 90.7444L19.8841 106.087L6.62309 98.4281L6.63762 83.086L19.8986 90.7444Z" fill="#AD4929"/>
<path d="M19.7863 90.7448L33.0474 83.0863L33.0619 98.4285L19.8009 106.087L19.7863 90.7448Z" fill="#CF5830"/>
<path d="M19.9115 60.3213L33.158 68.005L19.9115 75.6887L6.66504 68.005L19.9115 60.3213Z" fill="#FA693A"/>
<path d="M19.8986 75.6634L19.8841 91.0055L6.62309 83.3471L6.63762 68.0049L19.8986 75.6634Z" fill="#AD4929"/>
<path d="M19.7863 75.6638L33.0474 68.0053L33.0619 83.3474L19.8009 91.0059L19.7863 75.6638Z" fill="#CF5830"/>
<path d="M19.9115 45.2412L33.158 52.9249L19.9115 60.6086L6.66504 52.9249L19.9115 45.2412Z" fill="#FA693A"/>
<path d="M19.8986 60.5833L19.8841 75.9255L6.62309 68.267L6.63762 52.9249L19.8986 60.5833Z" fill="#AD4929"/>
<path d="M19.7863 60.5837L33.0474 52.9252L33.0619 68.2674L19.8009 75.9258L19.7863 60.5837Z" fill="#CF5830"/>
<path d="M59.2001 7.54004L72.4466 15.2237L59.2001 22.9074L45.9536 15.2237L59.2001 7.54004Z" fill="#FA693A"/>
<path d="M59.1872 22.8821L59.1727 38.2243L45.9117 30.5658L45.9262 15.2237L59.1872 22.8821Z" fill="#AD4929"/>
<path d="M59.0749 22.8825L72.3359 15.224L72.3505 30.5662L59.0894 38.2247L59.0749 22.8825Z" fill="#CF5830"/>
<path d="M46.1039 15.0801L59.3504 22.7638L46.1039 30.4474L32.8574 22.7638L46.1039 15.0801Z" fill="#FA693A"/>
<path d="M46.091 30.4222L46.0765 45.7643L32.8155 38.1059L32.83 22.7637L46.091 30.4222Z" fill="#AD4929"/>
<path d="M45.9787 30.4225L59.2397 22.7641L59.2543 38.1062L45.9932 45.7647L45.9787 30.4225Z" fill="#CF5830"/>
<path d="M33.0077 22.6201L46.2542 30.3038L33.0077 37.9875L19.7612 30.3038L33.0077 22.6201Z" fill="#FA693A"/>
<path d="M32.9948 37.9622L32.9803 53.3044L19.7193 45.6459L19.7338 30.3038L32.9948 37.9622Z" fill="#AD4929"/>
<path d="M32.8825 37.9626L46.1436 30.3041L46.1581 45.6463L32.8971 53.3047L32.8825 37.9626Z" fill="#CF5830"/>
<path d="M19.9115 30.1611L33.158 37.8448L19.9115 45.5285L6.66504 37.8448L19.9115 30.1611Z" fill="#FA693A"/>
<path d="M19.8986 45.5032L19.8841 60.8454L6.62309 53.1869L6.63762 37.8448L19.8986 45.5032Z" fill="#AD4929"/>
<path d="M19.7863 45.5036L33.0474 37.8451L33.0619 53.1873L19.8009 60.8457L19.7863 45.5036Z" fill="#CF5830"/>
<path d="M85.392 7.54004L98.6385 15.2237L85.392 22.9074L72.1455 15.2237L85.392 7.54004Z" fill="#FA693A"/>
<path d="M85.3791 22.8821L85.3646 38.2243L72.1036 30.5658L72.1181 15.2237L85.3791 22.8821Z" fill="#AD4929"/>
<path d="M85.2668 22.8825L98.5278 15.224L98.5424 30.5662L85.2813 38.2247L85.2668 22.8825Z" fill="#CF5830"/>
<path d="M98.4882 15.0801L111.735 22.7638L98.4882 30.4474L85.2417 22.7638L98.4882 15.0801Z" fill="#FA693A"/>
<path d="M98.4753 30.4222L98.4608 45.7643L85.1998 38.1059L85.2143 22.7637L98.4753 30.4222Z" fill="#AD4929"/>
<path d="M98.363 30.4225L111.624 22.7641L111.639 38.1062L98.3775 45.7647L98.363 30.4225Z" fill="#CF5830"/>
<path d="M111.584 22.6201L124.831 30.3038L111.584 37.9875L98.3379 30.3038L111.584 22.6201Z" fill="#FA693A"/>
<path d="M111.571 37.9622L111.557 53.3044L98.2959 45.6459L98.3105 30.3038L111.571 37.9622Z" fill="#AD4929"/>
<path d="M111.459 37.9626L124.72 30.3041L124.735 45.6463L111.474 53.3047L111.459 37.9626Z" fill="#CF5830"/>
<path d="M124.681 30.1611L137.927 37.8448L124.681 45.5285L111.434 37.8448L124.681 30.1611Z" fill="#FA693A"/>
<path d="M124.668 45.5032L124.653 60.8454L111.392 53.1869L111.407 37.8448L124.668 45.5032Z" fill="#AD4929"/>
<path d="M124.555 45.5036L137.816 37.8451L137.831 53.1873L124.57 60.8457L124.555 45.5036Z" fill="#5A28AD"/>
<path d="M71.8988 135.724L85.1453 143.407L71.8988 151.091L58.6523 143.407L71.8988 135.724Z" fill="#FA693A"/>
<path d="M71.8859 151.066L71.8714 166.408L58.6104 158.749L58.6249 143.407L71.8859 151.066Z" fill="#AD4929"/>
<path d="M71.7736 151.066L85.0347 143.408L85.0492 158.75L71.7882 166.408L71.7736 151.066Z" fill="#CF5830"/>
<path d="M124.283 90.4824L137.53 98.1661L124.283 105.85L111.037 98.1661L124.283 90.4824Z" fill="#FA693A"/>
<path d="M124.27 105.825L124.256 121.167L110.995 113.508L111.009 98.1661L124.27 105.825Z" fill="#AD4929"/>
<path d="M124.158 105.825L137.419 98.1664L137.433 113.509L124.172 121.167L124.158 105.825Z" fill="#5A28AD"/>
<path d="M168.43 73.5C168.43 71.1875 169.024 69.0938 170.211 67.2188C171.42 65.3229 173.024 63.8125 175.024 62.6875C177.024 61.5625 179.243 61 181.68 61H202.711V67.5625H181.68C179.847 67.5625 178.274 68.1458 176.961 69.3125C175.67 70.4583 175.024 71.8438 175.024 73.4688V92.9688C175.024 94.5938 175.67 95.9896 176.961 97.1562C178.274 98.3021 179.847 98.875 181.68 98.875H192.086C193.941 98.875 195.514 98.3021 196.805 97.1562C198.097 95.9896 198.743 94.5938 198.743 92.9688V87.1562H186.68V80.5938H205.336V92.9375C205.336 95.2292 204.743 97.3229 203.555 99.2188C202.368 101.115 200.764 102.625 198.743 103.75C196.743 104.875 194.524 105.438 192.086 105.438H181.68C179.243 105.438 177.024 104.875 175.024 103.75C173.024 102.625 171.42 101.115 170.211 99.2188C169.024 97.3229 168.43 95.2292 168.43 92.9375V73.5ZM212.555 84.6875C212.555 82.5417 213.076 80.5938 214.118 78.8438C215.18 77.0938 216.597 75.6979 218.368 74.6562C220.139 73.5938 222.097 73.0625 224.243 73.0625H242.305V105.438H235.711V79.6562H224.243C222.847 79.6562 221.649 80.1562 220.649 81.1562C219.649 82.1354 219.149 83.3333 219.149 84.75V93.6875C219.149 95.1042 219.649 96.3229 220.649 97.3438C221.649 98.3438 222.847 98.8438 224.243 98.8438H231.961V105.438H224.243C222.097 105.438 220.139 104.917 218.368 103.875C216.597 102.812 215.18 101.396 214.118 99.625C213.076 97.8542 212.555 95.8958 212.555 93.75V84.6875ZM249.805 79.6562C249.805 77.8438 250.451 76.2917 251.743 75C253.034 73.7083 254.597 73.0625 256.43 73.0625H266.305C268.972 73.0625 271.159 73.8958 272.868 75.5625C274.534 73.8958 276.722 73.0625 279.43 73.0625H284.305C286.451 73.0625 288.409 73.5938 290.18 74.6562C291.951 75.6979 293.357 77.1042 294.399 78.875C295.461 80.625 295.993 82.5729 295.993 84.7188V105.438H289.43V84.8125C289.43 83.375 288.93 82.1562 287.93 81.1562C286.93 80.1354 285.722 79.625 284.305 79.625H279.43C278.514 79.625 277.732 79.9167 277.086 80.5C276.441 81.0625 276.118 81.75 276.118 82.5625V105.438H269.524V82.5625C269.524 81.75 269.211 81.0625 268.586 80.5C267.961 79.9167 267.201 79.625 266.305 79.625H256.399V105.438H249.805V79.6562ZM302.743 64.25C302.743 63.125 303.139 62.1667 303.93 61.375C304.722 60.5833 305.68 60.1875 306.805 60.1875C307.93 60.1875 308.889 60.5833 309.68 61.375C310.472 62.1667 310.868 63.125 310.868 64.25C310.868 65.375 310.472 66.3333 309.68 67.125C308.889 67.9167 307.93 68.3125 306.805 68.3125C305.68 68.3125 304.722 67.9167 303.93 67.125C303.139 66.3333 302.743 65.375 302.743 64.25ZM303.493 73.0625H310.118V105.438H303.493V73.0625ZM339.336 64.25C339.336 63.125 339.732 62.1667 340.524 61.375C341.316 60.5833 342.274 60.1875 343.399 60.1875C344.524 60.1875 345.482 60.5833 346.274 61.375C347.066 62.1667 347.461 63.125 347.461 64.25C347.461 65.375 347.066 66.3333 346.274 67.125C345.482 67.9167 344.524 68.3125 343.399 68.3125C342.274 68.3125 341.316 67.9167 340.524 67.125C339.732 66.3333 339.336 65.375 339.336 64.25ZM317.618 70.2812C317.618 68.5729 318.034 67.0208 318.868 65.625C319.722 64.2083 320.847 63.0833 322.243 62.25C323.659 61.4167 325.222 61 326.93 61H334.149V67.5625H326.93C326.18 67.5625 325.534 67.8333 324.993 68.375C324.472 68.8958 324.211 69.5312 324.211 70.2812V73.0625H346.711V105.438H340.086V79.625H324.211V105.438H317.618V70.2812ZM354.055 84.75C354.055 82.6042 354.597 80.6458 355.68 78.875C356.764 77.1042 358.211 75.6979 360.024 74.6562C361.836 73.5938 363.847 73.0625 366.055 73.0625H384.274V79.6562H366.055C364.576 79.6562 363.305 80.1667 362.243 81.1875C361.18 82.1875 360.649 83.4062 360.649 84.8438V93.625C360.649 95.0625 361.17 96.2917 362.211 97.3125C363.274 98.3333 364.555 98.8438 366.055 98.8438H384.274V105.438H366.055C363.847 105.438 361.836 104.906 360.024 103.844C358.211 102.781 356.764 101.365 355.68 99.5938C354.597 97.8021 354.055 95.8333 354.055 93.6875V84.75ZM391.18 84.6875C391.18 82.5417 391.701 80.5938 392.743 78.8438C393.805 77.0938 395.222 75.6979 396.993 74.6562C398.764 73.5938 400.722 73.0625 402.868 73.0625H420.93V105.438H414.336V79.6562H402.868C401.472 79.6562 400.274 80.1562 399.274 81.1562C398.274 82.1354 397.774 83.3333 397.774 84.75V93.6875C397.774 95.1042 398.274 96.3229 399.274 97.3438C400.274 98.3438 401.472 98.8438 402.868 98.8438H410.586V105.438H402.868C400.722 105.438 398.764 104.917 396.993 103.875C395.222 102.812 393.805 101.396 392.743 99.625C391.701 97.8542 391.18 95.8958 391.18 93.75V84.6875ZM441.836 61H450.055L465.961 105.438H458.93L454.086 92.0625H441.68L444.055 85.5H451.711L445.961 69.625L432.961 105.438H425.93L441.836 61ZM470.243 64.25C470.243 63.125 470.639 62.1667 471.43 61.375C472.222 60.5833 473.18 60.1875 474.305 60.1875C475.43 60.1875 476.389 60.5833 477.18 61.375C477.972 62.1667 478.368 63.125 478.368 64.25C478.368 65.375 477.972 66.3333 477.18 67.125C476.389 67.9167 475.43 68.3125 474.305 68.3125C473.18 68.3125 472.222 67.9167 471.43 67.125C470.639 66.3333 470.243 65.375 470.243 64.25ZM470.993 73.0625H477.618V105.438H470.993V73.0625Z" fill="white"/>
</svg>
